<?xml version="1.0" standalone="no"?>
<!DOCTYPE svg PUBLIC "-//W3C//DTD SVG 20010904//EN"
 "http://www.w3.org/TR/2001/REC-SVG-20010904/DTD/svg10.dtd">
<svg version="1.0" xmlns="http://www.w3.org/2000/svg" width="256.000000pt" height="256.000000pt" viewBox="0 0 256.000000 256.000000" preserveAspectRatio="xMidYMid meet">
  <g transform="translate(0.000000,256.000000) scale(0.100000,-0.100000)" fill="#f59e0b" stroke="none">
    <path d="M320 2492 c-85 -22 -144 -58 -204 -121 -88 -95 -130 -232 -109 -355
33 -193 170 -323 440 -416 l92 -32 -33 -67 c-185 -368 -230 -918 -98 -1191 39
-79 119 -161 194 -198 131 -63 171 -67 698 -67 426 0 483 2 555 18 169 39 274
120 340 259 127 271 84 800 -94 1163 l-47 95 66 21 c113 37 239 109 307 175
252 246 122 662 -225 724 -131 24 -272 -23 -371 -122 -65 -65 -149 -190 -191
-283 -17 -38 -33 -71 -35 -73 -2 -2 -41 9 -87 24 -74 25 -98 28 -218 28 -127
0 -140 -1 -225 -32 -49 -18 -96 -34 -103 -35 -8 -1 -25 26 -41 63 -62 143
-164 285 -251 351 -102 77 -240 104 -360 71z m224 -102 c66 -25 132 -82 190
-164 45 -63 109 -183 131 -247 12 -33 12 -38 -2 -43 -9 -4 -16 -5 -17 -4 -1 2
-9 26 -19 53 -47 132 -149 253 -237 279 -67 20 -103 20 -166 1 -197 -58 -250
-329 -90 -459 52 -43 153 -92 223 -107 53 -12 66 -25 38 -35 -19 -7 -140 29
-223 67 -186 84 -275 199 -274 353 1 142 94 271 226 312 63 20 157 17 220 -6z
m1731 -10 c115 -56 185 -169 185 -299 0 -119 -45 -205 -144 -276 -77 -54 -120
-75 -228 -113 -74 -27 -88 -29 -98 -17 -10 12 -9 16 1 19 8 3 32 10 54 17 60
18 135 57 182 95 159 129 106 401 -91 459 -155 46 -282 -29 -377 -223 -31 -63
-49 -88 -57 -83 -15 9 -7 33 45 136 77 152 172 257 267 295 71 28 192 24 261
-10z m-1684 -222 c48 -27 121 -130 149 -210 27 -76 25 -86 -18 -135 l-37 -41
-57 9 c-117 19 -221 73 -272 142 -16 21 -21 43 -21 86 0 69 33 128 86 154 49
24 123 22 170 -5z m1546 5 c68 -32 108 -131 84 -206 -23 -70 -135 -144 -254
-169 l-54 -11 -57 56 -56 57 19 56 c34 95 114 203 165 224 35 15 116 11 153
-7z m-682 -199 c130 -32 245 -104 360 -225 160 -169 264 -383 327 -671 19 -88
22 -135 22 -323 1 -184 -2 -231 -17 -284 -49 -172 -122 -248 -282 -298 -55
-16 -103 -18 -560 -18 -546 0 -560 1 -668 58 -92 48 -146 123 -184 258 -15 53
-18 100 -17 284 0 189 3 235 23 325 66 308 188 542 372 715 187 175 396 235
624 179z"/>
    <path d="M870 1483 c-25 -32 -20 -69 12 -95 44 -39 108 -9 110 51 2 67 -80 97
-122 44z"/>
    <path d="M1590 1492 c-47 -38 -16 -122 45 -122 36 0 68 32 68 68 0 63 -64 94
-113 54z"/>
    <path d="M1206 1269 c-39 -31 -37 -90 4 -121 29 -21 30 -25 30 -98 0 -64 3
-80 20 -95 17 -15 24 -16 45 -7 24 11 25 16 25 92 0 78 1 80 30 95 35 18 50
43 50 84 0 47 -39 71 -115 71 -48 0 -68 -5 -89 -21z"/>
    <path d="M632 1258 c-27 -27 -14 -57 41 -91 l52 -32 -40 -3 c-48 -4 -65 -17
-65 -47 0 -30 17 -43 65 -47 l40 -3 -52 -32 c-39 -24 -53 -39 -53 -56 0 -28
17 -47 44 -47 28 0 274 148 281 170 10 33 -7 49 -134 124 -127 76 -157 86
-179 64z"/>
    <path d="M1790 1192 c-115 -71 -125 -79 -125 -107 0 -28 10 -36 125 -107 123
-75 164 -90 188 -66 27 27 14 57 -40 91 l-53 32 40 3 c48 4 65 17 65 47 0 30
-17 43 -65 47 l-40 3 53 32 c54 34 67 64 40 91 -24 24 -65 9 -188 -66z"/>
  </g>
</svg>
